<?xml version="1.0" standalone="no"?><svg xmlns="http://www.w3.org/2000/svg" viewBox="0 0 1440 320"><path fill="#0099ff" fill-opacity="1" d="M0,224L20,218.7C40,213,80,203,120,170.7C160,139,200,85,240,58.7C280,32,320,32,360,48C400,64,440,96,480,117.3C520,139,560,149,600,144C640,139,680,117,720,90.7C760,64,800,32,840,21.3C880,11,920,21,960,48C1000,75,1040,117,1080,165.3C1120,213,1160,267,1200,277.3C1240,288,1280,256,1320,250.7C1360,245,1400,267,1420,277.3L1440,288L1440,320L1420,320C1400,320,1360,320,1320,320C1280,320,1240,320,1200,320C1160,320,1120,320,1080,320C1040,320,1000,320,960,320C920,320,880,320,840,320C800,320,760,320,720,320C680,320,640,320,600,320C560,320,520,320,480,320C440,320,400,320,360,320C320,320,280,320,240,320C200,320,160,320,120,320C80,320,40,320,20,320L0,320Z"></path></svg>